<svg width="598" height="313" viewBox="0 0 598 313" fill="none" xmlns="http://www.w3.org/2000/svg">
<path d="M182.64 202C181.616 202 180.72 201.659 179.952 200.976C179.184 200.208 178.8 199.269 178.8 198.16V105.872C178.8 104.763 179.184 103.867 179.952 103.184C180.72 102.416 181.616 102.032 182.64 102.032C183.749 102.032 184.645 102.416 185.328 103.184C186.096 103.867 186.48 104.763 186.48 105.872V195.088H239.088C240.283 195.088 241.221 195.429 241.904 196.112C242.587 196.709 242.928 197.52 242.928 198.544C242.928 199.568 242.587 200.421 241.904 201.104C241.221 201.701 240.283 202 239.088 202H182.64ZM294.853 203.28C288.026 203.28 281.584 201.957 275.525 199.312C269.552 196.581 264.261 192.869 259.653 188.176C255.045 183.397 251.418 177.936 248.773 171.792C246.128 165.563 244.805 158.949 244.805 151.952C244.805 145.04 246.085 138.512 248.645 132.368C251.205 126.139 254.746 120.677 259.269 115.984C263.877 111.205 269.21 107.493 275.269 104.848C281.328 102.117 287.856 100.752 294.853 100.752C300.741 100.752 306.33 101.691 311.621 103.568C316.912 105.445 321.861 108.304 326.469 112.144C327.237 112.741 327.621 113.595 327.621 114.704C327.621 115.728 327.28 116.667 326.597 117.52C325.914 118.288 324.976 118.672 323.781 118.672C323.44 118.672 323.098 118.629 322.757 118.544C322.416 118.373 322.074 118.203 321.733 118.032C321.392 117.776 321.008 117.477 320.581 117.136C317.168 114.064 313.285 111.845 308.933 110.48C304.581 109.115 299.888 108.432 294.853 108.432C289.136 108.432 283.717 109.627 278.597 112.016C273.477 114.32 268.954 117.52 265.029 121.616C261.104 125.627 258.032 130.235 255.813 135.44C253.594 140.645 252.485 146.149 252.485 151.952C252.485 157.925 253.594 163.557 255.813 168.848C258.032 174.139 261.061 178.789 264.901 182.8C268.826 186.811 273.349 189.968 278.469 192.272C283.589 194.491 289.05 195.6 294.853 195.6C299.888 195.6 304.581 194.832 308.933 193.296C313.37 191.76 317.509 189.413 321.349 186.256C322.032 185.659 322.842 185.445 323.781 185.616C324.72 185.787 325.53 186.213 326.213 186.896C326.896 187.579 327.237 188.475 327.237 189.584C327.237 190.096 327.194 190.565 327.109 190.992C327.024 191.419 326.768 191.845 326.341 192.272C322.16 196.453 317.296 199.355 311.749 200.976C306.288 202.512 300.656 203.28 294.853 203.28Z" fill="#98FF98"/>
<path d="M443.752 191.248C443.069 191.675 442.259 191.803 441.32 191.632C440.467 191.461 439.699 191.035 439.016 190.352C438.333 189.669 437.992 188.816 437.992 187.792C437.992 186.341 438.675 185.189 440.04 184.336L491.24 153.744V159.248L440.04 128.528C438.675 127.675 437.992 126.523 437.992 125.072C437.992 123.365 438.675 122.299 440.04 121.872C441.405 121.36 442.643 121.403 443.752 122L495.336 153.104C496.872 154.128 497.64 155.323 497.64 156.688C497.64 158.224 496.872 159.376 495.336 160.144L443.752 191.248Z" fill="#062A78"/>
<path d="M154.88 191.248L103.296 160.144C101.76 159.376 100.992 158.224 100.992 156.688C100.992 155.323 101.76 154.128 103.296 153.104L154.88 122C155.989 121.403 157.227 121.36 158.592 121.872C159.957 122.299 160.64 123.365 160.64 125.072C160.64 126.523 159.957 127.675 158.592 128.528L107.392 159.248V153.744L158.592 184.336C159.957 185.189 160.64 186.341 160.64 187.792C160.64 188.816 160.299 189.669 159.616 190.352C158.933 191.035 158.123 191.461 157.184 191.632C156.331 191.803 155.563 191.675 154.88 191.248Z" fill="#062A78"/>
<path d="M381.96 212.368C380.595 212.368 379.485 211.813 378.632 210.704C377.864 209.595 377.779 208.315 378.376 206.864L419.72 103.952C419.976 103.269 420.403 102.715 421 102.288C421.683 101.776 422.451 101.52 423.304 101.52C425.011 101.52 426.12 102.16 426.632 103.44C427.144 104.72 427.187 105.957 426.76 107.152L385.544 210.192C385.203 211.045 384.691 211.6 384.008 211.856C383.325 212.197 382.643 212.368 381.96 212.368Z" fill="#FF8F00"/>
<g filter="url(#filter0_f_101_101)">
<path d="M182.64 202C181.616 202 180.72 201.659 179.952 200.976C179.184 200.208 178.8 199.269 178.8 198.16V105.872C178.8 104.763 179.184 103.867 179.952 103.184C180.72 102.416 181.616 102.032 182.64 102.032C183.749 102.032 184.645 102.416 185.328 103.184C186.096 103.867 186.48 104.763 186.48 105.872V195.088H239.088C240.283 195.088 241.221 195.429 241.904 196.112C242.587 196.709 242.928 197.52 242.928 198.544C242.928 199.568 242.587 200.421 241.904 201.104C241.221 201.701 240.283 202 239.088 202H182.64ZM294.853 203.28C288.026 203.28 281.584 201.957 275.525 199.312C269.552 196.581 264.261 192.869 259.653 188.176C255.045 183.397 251.418 177.936 248.773 171.792C246.128 165.563 244.805 158.949 244.805 151.952C244.805 145.04 246.085 138.512 248.645 132.368C251.205 126.139 254.746 120.677 259.269 115.984C263.877 111.205 269.21 107.493 275.269 104.848C281.328 102.117 287.856 100.752 294.853 100.752C300.741 100.752 306.33 101.691 311.621 103.568C316.912 105.445 321.861 108.304 326.469 112.144C327.237 112.741 327.621 113.595 327.621 114.704C327.621 115.728 327.28 116.667 326.597 117.52C325.914 118.288 324.976 118.672 323.781 118.672C323.44 118.672 323.098 118.629 322.757 118.544C322.416 118.373 322.074 118.203 321.733 118.032C321.392 117.776 321.008 117.477 320.581 117.136C317.168 114.064 313.285 111.845 308.933 110.48C304.581 109.115 299.888 108.432 294.853 108.432C289.136 108.432 283.717 109.627 278.597 112.016C273.477 114.32 268.954 117.52 265.029 121.616C261.104 125.627 258.032 130.235 255.813 135.44C253.594 140.645 252.485 146.149 252.485 151.952C252.485 157.925 253.594 163.557 255.813 168.848C258.032 174.139 261.061 178.789 264.901 182.8C268.826 186.811 273.349 189.968 278.469 192.272C283.589 194.491 289.05 195.6 294.853 195.6C299.888 195.6 304.581 194.832 308.933 193.296C313.37 191.76 317.509 189.413 321.349 186.256C322.032 185.659 322.842 185.445 323.781 185.616C324.72 185.787 325.53 186.213 326.213 186.896C326.896 187.579 327.237 188.475 327.237 189.584C327.237 190.096 327.194 190.565 327.109 190.992C327.024 191.419 326.768 191.845 326.341 192.272C322.16 196.453 317.296 199.355 311.749 200.976C306.288 202.512 300.656 203.28 294.853 203.28Z" fill="#98FF98"/>
<path d="M443.752 191.248C443.069 191.675 442.259 191.803 441.32 191.632C440.467 191.461 439.699 191.035 439.016 190.352C438.333 189.669 437.992 188.816 437.992 187.792C437.992 186.341 438.675 185.189 440.04 184.336L491.24 153.744V159.248L440.04 128.528C438.675 127.675 437.992 126.523 437.992 125.072C437.992 123.365 438.675 122.299 440.04 121.872C441.405 121.36 442.643 121.403 443.752 122L495.336 153.104C496.872 154.128 497.64 155.323 497.64 156.688C497.64 158.224 496.872 159.376 495.336 160.144L443.752 191.248Z" fill="#062A78"/>
<path d="M154.88 191.248L103.296 160.144C101.76 159.376 100.992 158.224 100.992 156.688C100.992 155.323 101.76 154.128 103.296 153.104L154.88 122C155.989 121.403 157.227 121.36 158.592 121.872C159.957 122.299 160.64 123.365 160.64 125.072C160.64 126.523 159.957 127.675 158.592 128.528L107.392 159.248V153.744L158.592 184.336C159.957 185.189 160.64 186.341 160.64 187.792C160.64 188.816 160.299 189.669 159.616 190.352C158.933 191.035 158.123 191.461 157.184 191.632C156.331 191.803 155.563 191.675 154.88 191.248Z" fill="#062A78"/>
<path d="M381.96 212.368C380.595 212.368 379.485 211.813 378.632 210.704C377.864 209.595 377.779 208.315 378.376 206.864L419.72 103.952C419.976 103.269 420.403 102.715 421 102.288C421.683 101.776 422.451 101.52 423.304 101.52C425.011 101.52 426.12 102.16 426.632 103.44C427.144 104.72 427.187 105.957 426.76 107.152L385.544 210.192C385.203 211.045 384.691 211.6 384.008 211.856C383.325 212.197 382.643 212.368 381.96 212.368Z" fill="#FF8F00"/>
</g>
<defs>
<filter id="filter0_f_101_101" x="-4" y="-11" width="607" height="343" filterUnits="userSpaceOnUse" color-interpolation-filters="sRGB">
<feFlood flood-opacity="0" result="BackgroundImageFix"/>
<feBlend mode="normal" in="SourceGraphic" in2="BackgroundImageFix" result="shape"/>
<feGaussianBlur stdDeviation="50" result="effect1_foregroundBlur_101_101"/>
</filter>
</defs>
</svg>
